HIERARCHY
ROOT Hips
{
	OFFSET 0.000000 0.000000 0.000000
	CHANNELS 6 Xposition Yposition Zposition Xrotation Yrotation Zrotation
	JOINT LeftUpLeg_virtual
	{
		OFFSET 0.000000 0.000000 0.000000
		CHANNELS 3 Xrotation Yrotation Zrotation
		JOINT LeftUpLeg
		{
			OFFSET 10.205400 -3.823500 0.155100
			CHANNELS 3 Xrotation Yrotation Zrotation
			JOINT LeftLeg
			{
				OFFSET 0.708757 -12.982077 0.567790
				CHANNELS 3 Xrotation Yrotation Zrotation
				JOINT LeftFoot
				{
					OFFSET -0.708756 -10.717838 -2.184338
					CHANNELS 3 Xrotation Yrotation Zrotation
					JOINT LeftToeBase
					{
						OFFSET 0.108149 -7.191104 7.560241
						CHANNELS 3 Xrotation Yrotation Zrotation
						JOINT LeftToe_End
						{
							OFFSET 0.070230 0.081724 4.490308
							CHANNELS 3 Xrotation Yrotation Zrotation
							End Site
							{
								OFFSET 0 0 0
							}
						}
					}
				}
			}
		}
	}
	JOINT RightUpLeg_virtual
	{
		OFFSET 0.000000 0.000000 0.000000
		CHANNELS 3 Xrotation Yrotation Zrotation
		JOINT RightUpLeg
		{
			OFFSET -10.205400 -3.823500 0.005500
			CHANNELS 3 Xrotation Yrotation Zrotation
			JOINT RightLeg
			{
				OFFSET -0.708756 -12.982134 0.610632
				CHANNELS 3 Xrotation Yrotation Zrotation
				JOINT RightFoot
				{
					OFFSET 0.708754 -10.717769 -1.945823
					CHANNELS 3 Xrotation Yrotation Zrotation
					JOINT RightToeBase
					{
						OFFSET -0.108140 -7.191069 7.372968
						CHANNELS 3 Xrotation Yrotation Zrotation
						JOINT RightToe_End
						{
							OFFSET -0.070227 0.081735 4.479403
							CHANNELS 3 Xrotation Yrotation Zrotation
							End Site
							{
								OFFSET 0 0 0
							}
						}
					}
				}
			}
		}
	}
	JOINT Spine_virtual
	{
		OFFSET 0.000000 0.000000 0.000000
		CHANNELS 3 Xrotation Yrotation Zrotation
		JOINT Spine
		{
			OFFSET 0.000000 6.876099 0.125700
			CHANNELS 3 Xrotation Yrotation Zrotation
			JOINT Spine1
			{
				OFFSET 0.000000 5.730043 0.104720
				CHANNELS 3 Xrotation Yrotation Zrotation
				JOINT Spine1_split
				{
					OFFSET 0.000000 5.730043 0.104720
					CHANNELS 3 Xrotation Yrotation Zrotation
					JOINT Spine2
					{
						OFFSET 0.000000 5.730043 0.104720
						CHANNELS 3 Xrotation Yrotation Zrotation
						JOINT Neck_virtual
						{
							OFFSET 0.000000 0.000000 0.000000
							CHANNELS 3 Xrotation Yrotation Zrotation
							JOINT Neck
							{
								OFFSET 0.000000 10.314075 0.188496
								CHANNELS 3 Xrotation Yrotation Zrotation
								JOINT Head
								{
									OFFSET 0.000000 7.643700 -2.377400
									CHANNELS 3 Xrotation Yrotation Zrotation
									JOINT HeadTop_End
									{
										OFFSET 0.000000 43.788605 -13.619600
										CHANNELS 3 Xrotation Yrotation Zrotation
										End Site
										{
											OFFSET 0 0 0
										}
									}
								}
							}
						}
						JOINT LeftShoulder_virtual
						{
							OFFSET 0.000000 0.000000 0.000000
							CHANNELS 3 Xrotation Yrotation Zrotation
							JOINT LeftShoulder
							{
								OFFSET 2.196100 4.412489 0.087492
								CHANNELS 3 Xrotation Yrotation Zrotation
								JOINT LeftShoulder_split
								{
									OFFSET 2.196100 4.412489 0.087492
									CHANNELS 3 Xrotation Yrotation Zrotation
									JOINT LeftArm
									{
										OFFSET 8.771219 -2.981674 -0.026999
										CHANNELS 3 Xrotation Yrotation Zrotation
										JOINT LeftForeArm
										{
											OFFSET 8.512804 0.000000 -0.000000
											CHANNELS 3 Xrotation Yrotation Zrotation
											JOINT LeftHand
											{
												OFFSET 18.484802 0.000000 -0.000000
												CHANNELS 3 Xrotation Yrotation Zrotation
												End Site
												{
													OFFSET 0 0 0
												}
											}
										}
									}
								}
							}
						}
						JOINT RightShoulder_virtual
						{
							OFFSET 0.000000 0.000000 0.000000
							CHANNELS 3 Xrotation Yrotation Zrotation
							JOINT RightShoulder
							{
								OFFSET -2.196100 4.412496 0.070690
								CHANNELS 3 Xrotation Yrotation Zrotation
								JOINT RightShoulder_split
								{
									OFFSET -2.196100 4.412496 0.070690
									CHANNELS 3 Xrotation Yrotation Zrotation
									JOINT RightArm
									{
										OFFSET -8.771282 -2.981682 -0.094208
										CHANNELS 3 Xrotation Yrotation Zrotation
										JOINT RightForeArm
										{
											OFFSET -8.494598 0.000000 0.000000
											CHANNELS 3 Xrotation Yrotation Zrotation
											JOINT RightHand
											{
												OFFSET -18.483803 0.000000 0.000001
												CHANNELS 3 Xrotation Yrotation Zrotation
												End Site
												{
													OFFSET 0 0 0
												}
											}
										}
									}
								}
							}
						}
					}
				}
			}
		}
	}
}
MOTION
Frames: 4
Frame Time: 0.03333333
3.564405 31.460550 -2.149805 0.000000 0.000000 0.000000 10.074210 -30.853815 -16.711772 -27.511698 -6.156018 32.954017 41.618310 3.825473 11.593578 -18.744660 31.845600 -19.096400 0.010114 0.399535 -0.063558 0.000000 0.000000 0.000000 12.050814 -30.202267 -17.386759 -20.727249 0.528887 29.345419 10.262097 3.589141 9.824069 -1.187080 13.196252 -7.040046 -1.869639 4.725324 -2.016918 0.000000 0.000000 0.000000 8.427735 -32.591580 -17.641281 17.171623 -4.882895 14.052494 13.978556 -0.566485 10.455628 1.624125 -1.374843 0.674541 0.000000 0.000000 0.000000 12.732445 -0.705304 9.470551 -9.257411 -6.079976 3.204084 36.645194 -14.515711 30.399423 0.000000 0.000000 0.000000 14.255117 -1.245271 9.624757 2.411778 -19.916026 -11.500492 0.904638 -1.051824 -0.441853 -35.466147 -27.225192 -56.939752 -0.937925 -14.848674 -1.456422 0.000000 0.000000 0.000000 12.313757 -1.056358 9.918482 2.449186 6.864017 11.502601 -4.584835 2.716234 -0.667235 0.515470 40.765472 26.611093 1.789152 22.789423 1.260110 0.000000 0.000000 0.000000 
3.504009 31.460590 -2.134550 0.000000 0.000000 0.000000 10.049326 -30.528166 -16.708361 -27.713498 -6.018060 33.092475 41.630225 3.746071 11.601806 -18.727453 31.510251 -19.085804 0.107185 0.398028 -0.073297 0.000000 0.000000 0.000000 12.014456 -29.830291 -17.387710 -20.719316 0.449837 29.315732 10.422825 3.555749 9.824140 -1.266097 13.007380 -7.150052 -1.891634 4.693350 -2.041193 0.000000 0.000000 0.000000 8.405235 -32.219423 -17.640400 17.072428 -4.945447 14.192728 13.880602 -0.627462 10.511589 1.609324 -1.382977 0.670676 0.000000 0.000000 0.000000 12.643800 -0.742408 9.520701 -9.139100 -6.026617 3.235434 36.800701 -14.658464 30.406172 0.000000 0.000000 0.000000 14.140506 -1.278974 9.658279 2.389941 -19.942431 -11.618412 0.858835 -1.081445 -0.409853 -35.162896 -27.555459 -57.215610 -1.030264 -15.023180 -1.482638 0.000000 0.000000 0.000000 12.225413 -1.090314 9.960558 2.584070 7.089019 10.973627 -4.499524 2.776823 -0.737166 0.846311 40.515217 26.892517 1.773211 23.282856 1.179810 0.000000 0.000000 0.000000 
3.435450 31.467201 -2.114658 0.000000 0.000000 0.000000 10.015359 -30.109796 -16.688230 -27.875216 -5.936349 33.173235 41.569935 3.651281 11.627017 -18.669965 31.125937 -19.081609 0.219246 0.393062 -0.103474 0.000000 0.000000 0.000000 11.981372 -29.364803 -17.367294 -20.669674 0.412560 29.248632 10.555898 3.507869 9.799524 -1.379644 12.765179 -7.280862 -1.874773 4.649531 -2.037918 0.000000 0.000000 0.000000 8.372641 -31.789596 -17.622383 16.960727 -5.001557 14.337183 13.776427 -0.686345 10.575495 1.589052 -1.396020 0.677140 0.000000 0.000000 0.000000 12.553557 -0.779541 9.579749 -9.033383 -5.988934 3.270164 36.958239 -14.815404 30.401329 0.000000 0.000000 0.000000 14.020296 -1.308306 9.700421 2.374275 -19.953669 -11.727005 0.821817 -1.110527 -0.388966 -34.768559 -27.829674 -57.483207 -1.130703 -15.203467 -1.510833 0.000000 0.000000 0.000000 12.133407 -1.123754 10.008076 2.729495 7.277399 10.439819 -4.410266 2.817599 -0.806104 1.181437 40.309885 27.175528 1.764407 23.790358 1.107154 0.000000 0.000000 0.000000 
3.360144 31.478848 -2.090265 0.000000 0.000000 0.000000 9.977558 -29.610250 -16.661174 -27.974831 -5.927126 33.203807 41.466164 3.553363 11.662779 -18.584530 30.730387 -19.108612 0.338786 0.385962 -0.148405 0.000000 0.000000 0.000000 11.948298 -28.811599 -17.339690 -20.574096 0.419987 29.156179 10.656954 3.436318 9.759680 -1.547163 12.469471 -7.475064 -1.766458 4.596776 -2.006622 0.000000 0.000000 0.000000 8.338327 -31.308255 -17.593239 16.835305 -5.055455 14.489965 13.665872 -0.744075 10.646977 1.562937 -1.409212 0.669892 0.000000 0.000000 0.000000 12.461766 -0.817814 9.648375 -8.944002 -5.967545 3.306834 37.128044 -14.980311 30.387795 0.000000 0.000000 0.000000 13.894374 -1.334544 9.752206 2.367400 -19.944648 -11.814227 0.794874 -1.139409 -0.384308 -34.296900 -28.054613 -57.741176 -1.234151 -15.384931 -1.538732 0.000000 0.000000 0.000000 12.039759 -1.157898 10.060859 2.885374 7.424450 9.895223 -4.330161 2.846301 -0.860059 1.508004 40.148074 27.461387 1.760964 24.303978 1.046000 0.000000 0.000000 0.000000 
